<svg width="72" height="72" viewBox="0 0 72 72" fill="none" xmlns="http://www.w3.org/2000/svg">
<g clip-path="url(#clip0_3316_8490)">
<mask id="mask0_3316_8490" style="mask-type:luminance" maskUnits="userSpaceOnUse" x="0" y="0" width="72" height="72">
<path d="M72 0H0V72H72V0Z" fill="white"/>
</mask>
<g mask="url(#mask0_3316_8490)">
<mask id="mask1_3316_8490" style="mask-type:luminance" maskUnits="userSpaceOnUse" x="-1" y="-1" width="74" height="74">
<path d="M-0.25 -0.25H72.25V72.25H-0.25V-0.25Z" fill="white"/>
</mask>
<g mask="url(#mask1_3316_8490)">
<path d="M33.9668 10.2102C35.7526 12.1381 37.2635 14.3831 38.4073 16.91C44.0944 29.474 38.556 44.2529 26.0369 49.9196C23.363 51.1299 20.5869 51.8266 17.8189 52.0516C16.4226 52.165 15.6167 53.8027 16.6243 54.776C24.5037 62.3874 36.5017 64.8574 47.0575 60.0793C60.8823 53.8215 66.9985 37.501 60.7182 23.6265C56.0047 13.2135 45.648 7.13768 34.9294 7.39986C34.714 7.40518 34.5198 7.45097 34.3485 7.5285C33.4063 7.95511 33.1619 9.34107 33.9668 10.2102Z" fill="url(#paint0_linear_3316_8490)"/>
<path d="M10.1038 10.6836C5.92604 11.0074 2.63698 14.5001 2.63698 18.7608C2.63698 23.2354 6.26429 26.8627 10.7389 26.8627H23.3418H24.242H35.9447C41.4136 26.8627 45.847 22.4293 45.847 16.9604C45.847 11.4915 41.4136 7.05817 35.9447 7.05817C35.7275 7.05817 35.512 7.06508 35.2984 7.07891C33.038 2.78453 28.5319 -0.143555 23.3418 -0.143555C16.8004 -0.143555 11.3454 4.50783 10.1038 10.6836Z" fill="url(#paint1_linear_3316_8490)"/>
<path d="M10.7389 10.6592C6.26428 10.6592 2.63698 14.2865 2.63698 18.7611C2.63698 23.2356 6.26428 26.8629 10.7389 26.8629H24.242V21.4617C24.242 15.4957 19.4056 10.6592 13.4395 10.6592H10.7389Z" fill="url(#paint2_radial_3316_8490)"/>
<path d="M9.8387 13.3596C9.8387 20.8172 15.8842 26.8627 23.3418 26.8627C30.7993 26.8627 36.8449 20.8172 36.8449 13.3596C36.8449 5.90204 30.7993 -0.143555 23.3418 -0.143555C15.8842 -0.143555 9.8387 5.90204 9.8387 13.3596Z" fill="url(#paint3_radial_3316_8490)"/>
<path d="M26.0424 16.9609C26.0424 22.4298 30.4758 26.8631 35.9447 26.8631C41.4136 26.8631 45.847 22.4298 45.847 16.9609C45.847 11.492 41.4136 7.05859 35.9447 7.05859C30.4758 7.05859 26.0424 11.492 26.0424 16.9609Z" fill="url(#paint4_radial_3316_8490)"/>
</g>
</g>
</g>
<defs>
<linearGradient id="paint0_linear_3316_8490" x1="24.6732" y1="9.10119" x2="46.1162" y2="57.2465" gradientUnits="userSpaceOnUse">
<stop stop-color="#F5982E"/>
<stop offset="0.22" stop-color="#F29928"/>
<stop offset="0.45" stop-color="#EE9922"/>
<stop offset="0.72" stop-color="#EE8C1D"/>
<stop offset="1" stop-color="#EE7F18"/>
</linearGradient>
<linearGradient id="paint1_linear_3316_8490" x1="24.242" y1="-0.118579" x2="24.3473" y2="26.1747" gradientUnits="userSpaceOnUse">
<stop stop-color="#AFCEFA"/>
<stop offset="0.39" stop-color="#B1D0F9"/>
<stop offset="0.78" stop-color="#B4D2F9"/>
<stop offset="0.89" stop-color="#90B4EE"/>
<stop offset="1" stop-color="#6C95E3"/>
</linearGradient>
<radialGradient id="paint2_radial_3316_8490" cx="0" cy="0" r="1" gradientUnits="userSpaceOnUse" gradientTransform="translate(16.6464 27.6354) scale(18.9809 18.9809)">
<stop offset="0.69" stop-color="#8FABDD" stop-opacity="0"/>
<stop offset="0.84" stop-color="#7296D8" stop-opacity="0.5"/>
<stop offset="1" stop-color="#5582D3"/>
</radialGradient>
<radialGradient id="paint3_radial_3316_8490" cx="0" cy="0" r="1" gradientUnits="userSpaceOnUse" gradientTransform="translate(23.7849 24.8845) scale(25.0985)">
<stop offset="0.6" stop-color="#C7DFFF" stop-opacity="0"/>
<stop offset="0.8" stop-color="#8FB0EC" stop-opacity="0.5"/>
<stop offset="1" stop-color="#5782DA"/>
</radialGradient>
<radialGradient id="paint4_radial_3316_8490" cx="0" cy="0" r="1" gradientUnits="userSpaceOnUse" gradientTransform="translate(30.2538 25.0321) scale(19.797)">
<stop offset="0.48" stop-color="#8FABDD" stop-opacity="0"/>
<stop offset="0.74" stop-color="#7396DC" stop-opacity="0.5"/>
<stop offset="1" stop-color="#5782DA"/>
</radialGradient>
<clipPath id="clip0_3316_8490">
<rect width="72" height="72" fill="white"/>
</clipPath>
</defs>
</svg>
